<svg version="1.1" id="_x3C_Layer_x3E_" xmlns="http://www.w3.org/2000/svg" xmlns:xlink="http://www.w3.org/1999/xlink" x="0px" y="0px" viewBox="0 0 3000 2000">

<g>
	<defs>
		<path id="SVGID_1_" d="M2479.898,1771.601c-71.386,22.862-158.338,29.055-227.399,24.29c0,0-1269.708,122.314-1728.672-3.088    c-339.681-92.81-298.674-423.214-194.721-634.694c105.138-213.89-170.849-627.333,272.798-867.076    c255.179-137.897,484.054,82.774,925.196-80.135c398.277-147.079,912.033-15.524,1037.666,292.944    c86.425,212.201-22.526,440.946,86.425,551.819C2827.894,1235.481,2746.64,1686.177,2479.898,1771.601z"/>
	</defs>
	<clipPath id="SVGID_00000105400609866258109160000013344681894251826613_">
		<use xlink:href="#SVGID_1_" style="overflow:visible;"/>
	</clipPath>
	<path style="clip-path:url(#SVGID_00000105400609866258109160000013344681894251826613_);fill:#DAE6FF;" d="M2479.898,1771.601   c-71.386,22.862-158.338,29.055-227.399,24.29c0,0-1269.708,122.314-1728.672-3.088   c-339.681-92.81-298.674-423.214-194.721-634.694c105.138-213.89-170.849-627.333,272.798-867.076   c255.179-137.897,484.054,82.774,925.196-80.135c398.277-147.079,912.033-15.524,1037.666,292.944   c86.425,212.201-22.526,440.946,86.425,551.819C2827.894,1235.481,2746.64,1686.177,2479.898,1771.601z"/>
	<g style="clip-path:url(#SVGID_00000105400609866258109160000013344681894251826613_);">
		<g>
			<path style="fill:#BBCFF8;" d="M2445.546,1901.777c0.249-0.04,0.497-0.104,0.744-0.198c1.978-0.744,2.981-2.95,2.236-4.928     c-194.288-516.963-363.796-879.753-477.295-1021.547c-2.521-3.148-4.341-5.42-5.054-6.586c-1.109-1.804-3.469-2.361-5.266-1.263     c-1.803,1.108-2.367,3.464-1.261,5.266c0.965,1.572,2.712,3.754,5.605,7.367c113.007,141.179,282.094,503.229,476.107,1019.455     C2442.011,1901.075,2443.785,1902.058,2445.546,1901.777z"/>
			<path style="fill:#BBCFF8;" d="M1897.255,852.835c13.381,15.87,77.128,42.355,81.657,38.534     c4.532-3.82-10.806-71.123-24.189-86.992c-13.38-15.871-37.093-17.887-52.963-4.506     C1885.891,813.251,1883.873,836.965,1897.255,852.835z"/>
			<path style="fill:#BBCFF8;" d="M2019.771,895.558c-4.725,20.704,12.892,89.091,18.804,90.439     c5.909,1.351,51.449-52.624,56.174-73.331c4.727-20.705-8.229-41.32-28.934-46.044     C2045.111,861.9,2024.496,874.853,2019.771,895.558z"/>
			<path style="fill:#BBCFF8;" d="M1954.418,1021.649c21.236-0.058,83.9-32.623,83.883-38.686     c-0.017-6.063-62.86-38.278-84.096-38.22c-21.238,0.059-38.406,17.324-38.349,38.56     C1915.917,1004.541,1933.18,1021.708,1954.418,1021.649z"/>
			<path style="fill:#BBCFF8;" d="M2224.585,1233.061c-11.632,33.698,5.399,151.005,15.016,154.326     c9.618,3.321,95.379-78.511,107.009-112.207c11.63-33.697-6.258-70.441-39.956-82.072     C2272.96,1181.476,2236.215,1199.366,2224.585,1233.061z"/>
			<path style="fill:#BBCFF8;" d="M2092.715,1431.655c35.449,3.745,145.909-39.264,146.977-49.382     c1.07-10.118-97.973-75.249-133.422-78.993c-35.451-3.745-67.224,21.96-70.966,57.408     C2031.56,1396.138,2057.263,1427.911,2092.715,1431.655z"/>
			<path style="fill:#BBCFF8;" d="M2325.958,1358.771c-22.958,37.091-34.228,181.711-23.641,188.267     c10.588,6.552,135.002-68.031,157.962-105.124c22.96-37.092,11.503-85.773-25.59-108.732     C2397.599,1310.224,2348.917,1321.679,2325.958,1358.771z"/>
			<path style="fill:#BBCFF8;" d="M2135.829,1619.88c43.622,0.093,172.665-66.164,172.69-78.616     c0.027-12.45-128.731-79.26-172.353-79.354c-43.622-0.093-79.062,35.193-79.155,78.816     C2056.919,1584.346,2092.208,1619.786,2135.829,1619.88z"/>
			<path style="fill:#BBCFF8;" d="M2394.806,1526.977c-22.96,37.094-34.229,181.713-23.644,188.267     c10.588,6.552,135.005-68.032,157.963-105.123c22.961-37.091,11.502-85.771-25.589-108.731     C2466.446,1478.428,2417.765,1489.886,2394.806,1526.977z"/>
			<path style="fill:#BBCFF8;" d="M2204.676,1788.086c43.623,0.094,172.665-66.166,172.691-78.616     c0.027-12.45-128.73-79.26-172.354-79.355c-43.622-0.093-79.06,35.194-79.154,78.817     C2125.767,1752.556,2161.053,1787.992,2204.676,1788.086z"/>
			<path style="fill:#BBCFF8;" d="M2534.87,1734.73c-35.357,25.551-100.863,154.977-93.57,165.068     c7.292,10.093,150.74-11.479,186.095-37.029c35.357-25.551,43.307-74.927,17.758-110.283     C2619.602,1717.13,2570.227,1709.179,2534.87,1734.73z"/>
			<path style="fill:#BBCFF8;" d="M2266.788,1954.862c43.27,5.546,179.583-44.06,181.166-56.409     c1.583-12.35-117.812-94.731-161.08-100.279c-43.269-5.546-82.841,25.036-88.387,68.302     C2192.941,1909.746,2223.519,1949.317,2266.788,1954.862z"/>
			<path style="fill:#BBCFF8;" d="M2083.009,1000.679c-4.801,21.036,13.1,90.519,19.104,91.89     c6.005,1.369,52.276-53.47,57.075-74.506c4.801-21.036-8.361-41.982-29.397-46.782     C2108.756,966.481,2087.811,979.642,2083.009,1000.679z"/>
			<path style="fill:#BBCFF8;" d="M2019.485,1129.914c21.575-0.062,85.243-33.148,85.227-39.307     c-0.018-6.158-63.867-38.893-85.445-38.832c-21.576,0.059-39.02,17.601-38.96,39.178     C1980.367,1112.53,1997.907,1129.973,2019.485,1129.914z"/>
			<path style="fill:#BBCFF8;" d="M2153.63,1097.5c-9.249,29.226,8.001,129.694,16.342,132.333     c8.342,2.64,80.247-69.615,89.496-98.841c9.247-29.228-6.946-60.419-36.175-69.666     C2194.068,1052.076,2162.878,1068.273,2153.63,1097.5z"/>
			<path style="fill:#BBCFF8;" d="M2049.549,1282.164c30.654-0.086,121.105-47.094,121.082-55.843     c-0.022-8.751-90.736-55.254-121.39-55.168c-30.655,0.085-55.437,25.003-55.352,55.658     C1993.974,1257.467,2018.894,1282.25,2049.549,1282.164z"/>
		</g>
		<g>
			<path style="fill:#8DACE2;" d="M719.378,1923.342c-0.122-0.006-0.245-0.025-0.369-0.057c-0.993-0.257-1.591-1.269-1.333-2.262     c67.011-259.436,130.036-443.214,177.463-517.484c1.053-1.649,1.814-2.839,2.097-3.439c0.442-0.928,1.551-1.318,2.475-0.882     c0.927,0.441,1.321,1.549,0.881,2.475c-0.384,0.808-1.115,1.951-2.323,3.844c-47.221,73.948-110.081,257.348-176.997,516.414     C721.047,1922.821,720.242,1923.387,719.378,1923.342z"/>
			<path style="fill:#8DACE2;" d="M929.675,1388.973c-5.635,8.347-35.019,24.419-37.401,22.81     c-2.384-1.608,1.537-34.87,7.173-43.217c5.635-8.348,16.97-10.546,25.318-4.911     C933.111,1369.29,935.311,1380.625,929.675,1388.973z"/>
			<path style="fill:#8DACE2;" d="M872.778,1415.915c3.349,9.744-1.615,43.646-4.398,44.602     c-2.781,0.957-27.54-22.728-30.889-32.473c-3.35-9.744,1.835-20.359,11.579-23.708S869.429,1406.171,872.778,1415.915z"/>
			<path style="fill:#8DACE2;" d="M910.823,1473.367c-10.248,1.07-42.161-11.402-42.467-14.328     c-0.305-2.925,28.347-21.715,38.595-22.784c10.249-1.069,19.424,6.373,20.493,16.62     C928.512,1463.124,921.071,1472.298,910.823,1473.367z"/>
			<path style="fill:#8DACE2;" d="M791.414,1589.319c7.353,15.656,5.2,73.127,0.732,75.226c-4.468,2.099-50.07-32.946-57.423-48.601     c-7.352-15.655-0.622-34.306,15.034-41.658C765.411,1566.934,784.063,1573.665,791.414,1589.319z"/>
			<path style="fill:#8DACE2;" d="M865.295,1678.31c-16.908,3.638-72.419-11.401-73.457-16.227     c-1.039-4.826,43.375-41.365,60.283-45.003c16.909-3.639,33.565,7.12,37.203,24.027     C892.962,1658.016,882.204,1674.672,865.295,1678.31z"/>
			<path style="fill:#8DACE2;" d="M749.007,1655.204c12.993,16.707,25.903,85.893,21.135,89.602     c-4.769,3.708-68.644-25.843-81.638-42.55c-12.993-16.707-9.982-40.784,6.726-53.777     C711.936,1635.486,736.013,1638.496,749.007,1655.204z"/>
			<path style="fill:#8DACE2;" d="M854.223,1771.342c-21.039,2.299-86.717-22.995-87.373-29.001     c-0.656-6.005,58.006-44.89,79.046-47.189c21.039-2.299,39.96,12.892,42.26,33.932     C890.455,1750.122,875.263,1769.043,854.223,1771.342z"/>
			<path style="fill:#8DACE2;" d="M724.486,1739.908c12.994,16.708,25.904,85.893,21.136,89.603     c-4.769,3.708-68.645-25.843-81.638-42.55c-12.994-16.707-9.982-40.783,6.725-53.776     C687.416,1720.19,711.493,1723.201,724.486,1739.908z"/>
			<path style="fill:#8DACE2;" d="M829.704,1856.047c-21.04,2.3-86.717-22.996-87.373-29.001     c-0.657-6.005,58.006-44.89,79.046-47.19c21.039-2.299,39.959,12.892,42.259,33.932     C865.935,1834.828,850.743,1853.747,829.704,1856.047z"/>
			<path style="fill:#8DACE2;" d="M667.653,1847.372c18.378,10.499,56.668,69.552,53.671,74.797     c-2.996,5.246-73.313,2.253-91.69-8.246c-18.378-10.499-24.764-33.908-14.266-52.285     C625.867,1843.26,649.276,1836.873,667.653,1847.372z"/>
			<path style="fill:#8DACE2;" d="M808.358,1939.714c-20.588,4.912-88.912-11.974-90.314-17.85     c-1.402-5.876,51.939-51.789,72.526-56.702c20.587-4.911,41.258,7.796,46.17,28.383     C841.652,1914.132,828.946,1934.802,808.358,1939.714z"/>
			<path style="fill:#8DACE2;" d="M847.704,1469.896c3.403,9.9-1.642,44.345-4.467,45.317c-2.826,0.971-27.983-23.093-31.385-32.994     c-3.403-9.9,1.864-20.685,11.764-24.088C833.516,1454.729,844.3,1459.996,847.704,1469.896z"/>
			<path style="fill:#8DACE2;" d="M885.028,1528.959c-10.412,1.085-42.836-11.586-43.147-14.558     c-0.31-2.972,28.801-22.064,39.213-23.15c10.412-1.086,19.734,6.474,20.82,16.887     C903.001,1518.551,895.441,1527.872,885.028,1528.959z"/>
			<path style="fill:#8DACE2;" d="M818.639,1520.254c5.972,13.621,2.843,62.981-1.045,64.685     c-3.888,1.705-42.311-29.436-48.283-43.058c-5.972-13.622,0.229-29.506,13.851-35.478     C796.783,1500.431,812.666,1506.633,818.639,1520.254z"/>
			<path style="fill:#8DACE2;" d="M878.393,1603.962c-14.792,1.542-60.858-16.46-61.298-20.682     c-0.441-4.223,40.917-31.345,55.71-32.888c14.793-1.543,28.036,9.197,29.579,23.99     C903.928,1589.175,893.186,1602.418,878.393,1603.962z"/>
		</g>
		<g>
			<path style="fill:#BBCFF8;" d="M447.49,1793.682c-0.179,0.014-0.362,0.011-0.548-0.012c-1.495-0.183-2.559-1.542-2.375-3.037     c47.775-390.53,104.263-670.158,159.054-787.376c1.217-2.603,2.096-4.481,2.394-5.408c0.465-1.435,2.005-2.217,3.434-1.758     c1.434,0.465,2.22,2.001,1.757,3.434c-0.404,1.25-1.248,3.054-2.644,6.041c-54.554,116.71-110.874,395.755-158.583,785.729     C449.819,1792.603,448.756,1793.582,447.49,1793.682z"/>
			<path style="fill:#BBCFF8;" d="M651.103,975.425c-6.602,13.233-46.294,42.267-50.071,40.381     c-3.779-1.884-4.452-51.056,2.151-64.29c6.601-13.234,22.681-18.608,35.914-12.007     C652.328,946.112,657.705,962.192,651.103,975.425z"/>
			<path style="fill:#BBCFF8;" d="M573.445,1025.563c6.745,13.542,6.023,63.848,2.156,65.773     c-3.865,1.927-44.452-27.803-51.198-41.346c-6.747-13.542-1.236-29.989,12.307-36.734     C550.252,1006.511,566.699,1012.02,573.445,1025.563z"/>
			<path style="fill:#BBCFF8;" d="M639.851,1101.899c-14.713,3.523-63.564-8.509-64.57-12.71     c-1.006-4.201,37.099-37.05,51.813-40.573c14.714-3.523,29.498,5.55,33.022,20.263     C663.637,1083.594,654.565,1098.376,639.851,1101.899z"/>
			<path style="fill:#BBCFF8;" d="M488.269,1293.607c13.708,21.38,21.6,105.457,15.498,109.37     c-6.102,3.913-79.211-38.355-92.917-59.734c-13.706-21.379-7.487-49.821,13.893-63.528     C446.12,1266.008,474.563,1272.229,488.269,1293.607z"/>
			<path style="fill:#BBCFF8;" d="M612.895,1408.98c-23.916,8.541-107.611-2.702-110.049-9.528     c-2.439-6.826,55.207-68.539,79.123-77.08c23.917-8.541,50.228,3.925,58.768,27.84     C649.277,1374.128,636.813,1400.44,612.895,1408.98z"/>
			<path style="fill:#BBCFF8;" d="M439.175,1397.655c22.119,21.828,54.189,120.068,47.959,126.383     c-6.231,6.313-104.887-24.45-127.008-46.279c-22.121-21.829-22.357-57.456-0.527-79.577     C381.427,1376.063,417.055,1375.826,439.175,1397.655z"/>
			<path style="fill:#BBCFF8;" d="M614.627,1546.536c-30.187,7.384-130.65-16.837-132.757-25.455     c-2.108-8.615,75.83-76.478,106.017-83.862c30.187-7.384,60.645,11.1,68.03,41.288     C663.3,1508.693,644.814,1539.152,614.627,1546.536z"/>
			<path style="fill:#BBCFF8;" d="M419.731,1525.668c22.121,21.83,54.19,120.069,47.961,126.383     c-6.232,6.313-104.889-24.45-127.008-46.279c-22.121-21.828-22.356-57.455-0.528-79.576     C361.983,1504.075,397.611,1503.84,419.731,1525.668z"/>
			<path style="fill:#BBCFF8;" d="M595.185,1674.549c-30.188,7.385-130.651-16.839-132.758-25.454     c-2.108-8.615,75.829-76.478,106.017-83.863c30.187-7.384,60.644,11.101,68.029,41.289     C643.857,1636.708,625.372,1667.165,595.185,1674.549z"/>
			<path style="fill:#BBCFF8;" d="M357.615,1693.012c28.768,11.758,95.839,90.377,92.483,98.588     c-3.355,8.212-106.294,17.346-135.06,5.588c-28.768-11.758-42.557-44.61-30.8-73.377     C295.996,1695.044,328.848,1681.254,357.615,1693.012z"/>
			<path style="fill:#BBCFF8;" d="M580.164,1800.442c-29.028,11.1-131.73-0.373-134.899-8.658     c-3.168-8.285,65.674-85.357,94.701-96.459c29.028-11.1,61.558,3.434,72.658,32.46     C623.723,1756.814,609.191,1789.342,580.164,1800.442z"/>
			<path style="fill:#BBCFF8;" d="M547.299,1108.957c6.854,13.759,6.118,64.871,2.192,66.827     c-3.928,1.956-45.167-28.249-52.019-42.009c-6.854-13.759-1.256-30.47,12.504-37.323     C523.735,1089.599,540.445,1095.197,547.299,1108.957z"/>
			<path style="fill:#BBCFF8;" d="M612.967,1187.776c-14.949,3.578-64.582-8.647-65.604-12.914     c-1.021-4.267,37.693-37.645,52.643-41.224c14.949-3.579,29.97,5.639,33.549,20.588     C637.134,1169.176,627.916,1184.196,612.967,1187.776z"/>
			<path style="fill:#BBCFF8;" d="M514.65,1187.842c11.308,18.683,16.222,91.139,10.89,94.366     c-5.333,3.227-67.242-34.734-78.55-53.418c-11.307-18.685-5.329-42.998,13.357-54.304     C479.03,1163.178,503.342,1169.159,514.65,1187.842z"/>
			<path style="fill:#BBCFF8;" d="M617.698,1298.234c-21.238,5.084-91.752-12.285-93.203-18.347     c-1.453-6.063,53.552-53.481,74.79-58.565c21.239-5.085,42.579,8.009,47.663,29.248     C652.033,1271.81,638.937,1293.15,617.698,1298.234z"/>
		</g>
		<g>
			<path style="fill:#E96F5F;" d="M1201.353,1521.337c0,0,34.776-67.91,30.849-93.754c-3.928-25.843-25.085-99.298-19.561-126.686     c1.72-8.526,19.702-73.833,35.974-82.735c11.008-6.023,35.268,18.694,26.754,52.079c-14.799,58.033,2.84,92.222,12.413,116.872     c16.328,42.046,22.619,67.104,23.136,46.688c0,0-7.63-62.894-4.637-90.304c0.808-7.404,17.157-64.226,32.855-69.448     c8.492-2.825,35.133,11.323,24.642,63.55c-6.894,34.324,12.345,56.842,26.457,80.569c12.212,20.534,71.784,72.597,71.784,72.597     l-80.578,61.357L1201.353,1521.337z"/>
			<path style="fill:#F78978;" d="M1149.523,1410.491c0,0-37.912-107.462-40.767-151.598c-1.145-17.704,0.579-76.095,15.054-86.229     c23.893-16.729,51.287,25.187,48.75,78.762c-2.518,53.162,49.344,94.839,74.318,129.927     c62.086,87.234,99.511,139.738,99.511,139.738L1149.523,1410.491z"/>
			<g>
				<path style="fill:#1E66BC;" d="M1269.897,1026.554c-8.028-8.012,8.028-9.454,8.028-26.268v-14.895      c0-48.103,10.881-88.001,32.644-119.694c21.763-31.693,57.082-62.821,105.96-93.37c27.485-16.024,47.539-29.017,60.145-38.947      c12.606-9.93,21.569-20.231,26.921-30.935c5.336-10.688,8.012-24.439,8.012-41.236c0-28.259-10.51-50.022-31.499-65.304      c-21.005-15.266-51.36-22.907-91.064-22.907c-62.628,0-118.759,16.427-168.394,49.264c-9.172,5.352-15.282,8.012-18.329,8.012      c-6.883,0-31.474-10.918-36.052-19.332l-25.818-70.023c-3.063-5.336-4.578-9.914-4.578-13.751      c0-6.867,4.191-12.977,12.606-18.329c71.01-48.103,159.222-72.155,264.617-72.155c85.535,0,154.643,19.667,207.341,59.001      c52.698,39.334,79.055,94.127,79.055,164.38c0,45.814-10.704,83.617-32.08,113.407c-21.392,29.791-55.761,58.05-103.106,84.777      c-37.432,21.376-63.015,41.236-76.749,59.565c-13.751,18.329-20.618,41.623-20.618,69.882v12.59      c0,16.814-3.821,29.226-11.462,37.238c-7.641,8.028-21.005,12.026-40.092,12.026h-85.922      C1311.133,1049.551,1277.909,1034.582,1269.897,1026.554z M1269.897,1208.288c-11.832-9.543,0-12.106,0-28.146v-24.052      c0-16.797,5.916-29.984,17.749-39.527c11.832-9.543,28.839-14.315,50.989-14.315h66.448c22.891,0,40.269,4.772,52.101,14.315      c11.832,9.543,17.765,22.73,17.765,39.527v24.052c0,16.797-5.932,29.791-17.765,38.947      c-11.832,9.173-29.21,13.751-52.101,13.751h-66.448C1316.485,1232.841,1281.729,1217.832,1269.897,1208.288z"/>
			</g>
			<g>
				<path style="fill:#FFA089;" d="M2079.748,1567.748c-27.139-7.478-52.57-14.633-74.73-21.071      c-12.35-3.623-23.697-7.006-33.732-10.101c-16.204-5.017-29.011-9.28-37.25-12.523c-21.07-8.298-54.219-16.425-81.355-32.524      l-0.016-0.017c-18.377-10.885-33.978-25.428-41.234-46.167c-17.984-51.382-114.078-142.356-200.973-201.752      c-47.379-32.409-95.787-85.405-113.306-106.832c-13.777-16.857-61.717-89.352-80.048-95.157      c-10.794-3.402-36.834,26.37-40.074,43.405c-6.965,36.498,18.452,82.603,69.281,152.665      c48.432,66.746,54.382,105.393,52.292,141.55c-1.379,23.488-6.208,47.026-34.727,68.13      c-3.368,2.473-13.433,11.099-28.005,19.675c-30.482,17.969-80.667,35.745-129.802-3.634c-0.578-0.472-1.158-0.913-1.752-1.369      l-0.015-0.016c0,0,0,0-0.015-0.016c-21.267-16.409-48.282-26.681-72.698-37.977c-25.561-11.829-48.297-24.798-58.572-47.144      c-12.502-27.171-34.58-51.405-57.405-78.727l-0.015-0.017c-16.543-19.747-33.48-41.128-47.452-66.427      c-34.099-61.664-73.451-57.759-87.06-32.034c-7.374,13.966,26.929,111.49,33.679,125.21      c8.989,18.327,82.336,140.582,98.13,160.134c38.84,48.152,206.123,192.121,237.99,216.747      c53.984,41.742,202.189,51.357,324.804,71.861c8.206,1.374,16.39,2.859,24.553,4.453l0.032,0.001      c44.825,8.773,88.932,20.816,131.931,36.094c13.633,4.811,27.126,9.961,40.521,15.439c6.031,2.469,12.058,5.001,18.035,7.609      C1976.811,1743.075,2037.127,1653.267,2079.748,1567.748z"/>
				<polygon style="fill:#89B4FD;" points="1861.387,1853.863 1699.49,1777.718 1852.51,1491.46 2010.346,1535.3     "/>
				<path style="fill:#100259;" d="M2619.331,1684.452l-639.815-164.297l-2.913,5.78l-5.323,10.647l-139.082,277.585l-10.53,21.021      l-9.596,19.133l476.963,269.256C2397.648,2022.906,2500.014,1794.872,2619.331,1684.452z"/>
				<path style="fill:#100259;" d="M1894.081,1543.569c5.031,4.742,12.953,4.51,17.695-0.521c4.744-5.03,4.51-12.953-0.521-17.695      c-5.029-4.743-12.952-4.509-17.695,0.521C1888.818,1530.905,1889.052,1538.828,1894.081,1543.569z"/>
			</g>
			<g>
				<path style="fill:#2A6FD3;" d="M1264.115,1021.939c-8.028-8.012-12.026-20.425-12.026-37.238v-14.895      c0-48.103,10.881-88.001,32.644-119.694c21.763-31.693,57.083-62.821,105.96-93.37c27.485-16.024,47.539-29.017,60.145-38.947      s21.569-20.231,26.921-30.935c5.336-10.688,8.012-24.439,8.012-41.236c0-28.259-10.51-50.022-31.499-65.304      c-21.005-15.266-51.36-22.907-91.064-22.907c-62.628,0-118.759,16.427-168.394,49.264c-9.173,5.352-15.282,8.012-18.329,8.012      c-6.883,0-12.606-4.191-17.184-12.606l-44.686-76.749c-3.063-5.336-4.578-9.914-4.578-13.751      c0-6.867,4.191-12.977,12.606-18.329c71.01-48.103,159.222-72.155,264.617-72.155c85.535,0,154.643,19.667,207.341,59.001      c52.698,39.334,79.055,94.127,79.055,164.38c0,45.814-10.704,83.617-32.08,113.407c-21.392,29.791-55.761,58.05-103.106,84.777      c-37.432,21.376-63.015,41.236-76.749,59.565c-13.751,18.329-20.618,41.623-20.618,69.882v12.59      c0,16.814-3.821,29.226-11.462,37.238c-7.641,8.028-21.005,12.026-40.092,12.026h-85.922      C1285.297,1033.965,1272.127,1029.967,1264.115,1021.939z M1261.81,1202.94c-11.832-9.543-17.749-22.343-17.749-38.383v-24.052      c0-16.797,5.916-29.984,17.749-39.527c11.832-9.543,28.839-14.315,50.989-14.315h66.448c22.891,0,40.269,4.772,52.101,14.315      c11.832,9.543,17.765,22.73,17.765,39.527v24.052c0,16.798-5.932,29.791-17.765,38.947      c-11.832,9.172-29.21,13.751-52.101,13.751h-66.448C1290.649,1217.255,1273.642,1212.483,1261.81,1202.94z"/>
			</g>
			<path style="fill:#FFA089;" d="M1801.184,1424.353c-31.625-52.649-114.707-128.789-190.717-180.774     c-47.377-32.393-95.801-85.384-113.324-106.815c-13.754-16.856-61.704-89.365-80.039-95.171     c-10.801-3.385-36.837,26.389-40.073,43.417c-6.961,36.499,18.443,82.615,69.268,152.656     c48.445,66.747,54.395,105.394,52.3,141.554c-0.051,0.834-0.107,1.642-0.158,2.476L1801.184,1424.353z"/>
		</g>
	</g>
	<path style="clip-path:url(#SVGID_00000105400609866258109160000013344681894251826613_);fill:#FFFFFF;" d="M1908.676,490.423   l-163.275,55.448c-8.154,2.769-17.009-1.596-19.778-9.75l0,0c-2.769-8.154,1.596-17.009,9.75-19.778l163.275-55.448   c8.154-2.769,17.009,1.596,19.778,9.75l0,0C1921.196,478.799,1916.83,487.654,1908.676,490.423z"/>
	<path style="clip-path:url(#SVGID_00000105400609866258109160000013344681894251826613_);fill:#FFFFFF;" d="M1739.553,363.059   l-53.227,96.588c-3.394,6.158-11.137,8.399-17.295,5.006l-5.012-2.762c-6.158-3.393-8.399-11.137-5.006-17.295l53.227-96.588   c3.394-6.158,11.137-8.399,17.295-5.006l5.012,2.762C1740.705,349.158,1742.946,356.901,1739.553,363.059z"/>
	<path style="clip-path:url(#SVGID_00000105400609866258109160000013344681894251826613_);fill:#FFFFFF;" d="M1582.346,325.177   l-5.208,73.965c-0.406,5.768-5.411,10.115-11.179,9.709l-9.146-0.644c-5.768-0.406-10.115-5.411-9.709-11.179l5.208-73.965   c0.406-5.768,5.411-10.115,11.179-9.709l9.146,0.644C1578.405,314.404,1582.752,319.409,1582.346,325.177z"/>
</g>
</svg>

