<svg xmlns="http://www.w3.org/2000/svg" version="1.1" x="0px" y="0px" viewBox="19 92 462 316" xml:space="preserve">

<g id="OBJECTS">
	<g>
		<path style="fill:#EAF3FF;" d="M455.785,226.504c3.048,1.475,5.797,3.463,8.376,5.701l1.872,1.755l1.788,1.863    c1.104,1.319,2.224,2.65,3.2,4.095c1.044,1.401,2.006,2.88,3,4.37c0.855,1.554,1.603,3.191,1.852,4.973    c0.662,3.496,0.375,7.228-1.306,10.657l-0.732,0.053c-0.649-0.763-1.112-1.513-1.585-2.244c-0.451-0.733-0.809-1.46-1.256-2.157    c-0.416-0.702-0.775-1.401-1.104-2.096c-0.152-0.351-0.341-0.69-0.527-1.028l-0.506-1.022c-1.358-2.667-1.66-5.755-2.933-8.588    c-0.586-1.427-1.328-2.785-2.066-4.161l-1.166-2.045l-1.281-1.994c-1.744-2.652-3.774-5.182-6.031-7.52L455.785,226.504z" />
		<path style="fill:#EAF3FF;" d="M87.034,354.608c0,0-43.006-14.055-36.539-50.513c6.467-36.458,19.755-48.217,10.663-67.513    c-9.091-19.297-24.619-49.717-4.267-74.719s41.12-13.113,56.961-20.106c15.841-6.993,10.968-34.967,41.028-45.457    c30.06-10.49,50.34,2.098,62.229,15.385c11.889,13.287,32.169-6.294,55.947-9.791c23.777-3.497,45.456-1.399,62.24,23.078    c16.784,24.477,49.39-4.196,77.145,14.686c27.755,18.882,11.796,53.847,14.181,69.933c2.385,16.085,38.411,12.739,44.525,57.77    c5.427,39.972-6.982,87.247-58.706,87.247H87.034z" />
		<path style="opacity:0.44;fill:#0094F5;" d="M436.164,280.992c-0.917-6.584-6.137-13.135-10.687-17.732    c-5.344-5.399-12.176-9.257-19.816-9.983c-4.097-0.389-8.253,0.195-12.036,1.823c-4.707,2.026-7.065,5.933-12.704,5.164    c-7.294-0.995-13.734-1.14-20.693,1.786c-5.22,2.195-9.701,5.603-13.205,9.935c-5.832-8.446-12.446-16.888-21.931-21.196    c-8.306-3.773-17.799-3.999-25.52,0.626c-15.003-17.237-40.557-22.918-61.623-14.443c-7.223-14.639-23.314-24.278-39.871-22.175    c-15.903,2.02-28.625,14.373-32.596,29.48c-11.858-6.954-26.681-1.864-37.448,6.009c-9.005,6.584-20.735,17.668-19.247,29.522    c-5.526-2.254-11.431-3.88-17.412-3.633c-21.158,0.873-23.93,13.171-25.849,19.784c-1.799,6.2-2.719,23.195,1.13,27.326    c2.799,3.005,5.983,5.534,9.453,7.585c-0.718,1.19,16.019-0.723,17.474,0.435c24.198,19.266,54.207-3.112,83.034-4.71    c37.439-2.076,74.906-3.763,112.403-4.224c18.737-0.23,37.48-0.157,56.213,0.328c15.77,0.408,31.887,2.104,47.575-0.242    c14.799-2.213,26.803-9.253,35.217-21.725C431.711,295.269,437.136,287.968,436.164,280.992z" />
		<path style="fill:#EAF3FF;" d="M43.26,168.343c0.772-4.359,2.589-8.441,4.82-12.303c2.297-3.825,5.162-7.367,8.527-10.407    c0.82-0.784,1.72-1.47,2.565-2.24l1.293-1.13l1.375-1.016c0.933-0.656,1.876-1.315,2.867-1.879    c1.022-0.502,2.071-0.954,3.133-1.364l1.6-0.589l1.66-0.406c1.11-0.252,2.222-0.478,3.338-0.657    c2.257-0.262,4.559-0.255,6.842,0.029l0.142,0.613c-1.849,1.477-3.74,2.49-5.566,3.574c-0.898,0.577-1.801,1.106-2.705,1.61    l-1.361,0.728l-1.308,0.81c-0.877,0.523-1.766,1.004-2.683,1.435c-0.888,0.479-1.769,0.967-2.691,1.4l-1.395,0.638l-1.325,0.757    c-0.877,0.518-1.788,1.007-2.617,1.603l-2.461,1.843c-0.808,0.634-1.545,1.348-2.329,2.021c-0.814,0.647-1.491,1.424-2.239,2.146    c-0.759,0.715-1.416,1.516-2.099,2.305c-1.395,1.558-2.622,3.263-3.793,5.023c-1.1,1.79-2.168,3.653-2.98,5.605L43.26,168.343z" />
		<path style="fill:#EAF3FF;" d="M211.7,97.891c2.299,1.647,4.567,3.297,6.88,4.825c1.142,0.779,2.295,1.528,3.456,2.235l0.857,0.54    c0.276,0.164,0.481,0.232,0.714,0.355c0.215,0.129,0.471,0.174,0.699,0.256c0.225,0.09,0.469,0.138,0.713,0.174    c0.962,0.189,1.99,0.035,3.013-0.228c1.03-0.263,2.1-0.463,3.3-0.539c2.421-0.114,5.128-0.42,8.516,0.167l0.328,0.657    c-0.784,1.567-1.822,2.765-2.998,3.811c-1.179,1.034-2.524,1.878-4.032,2.48c-1.502,0.606-3.198,0.887-4.961,0.692    c-1.764-0.217-3.548-0.747-5.202-1.529c-0.417-0.188-0.822-0.396-1.203-0.656c-0.382-0.252-0.779-0.474-1.114-0.78    c-0.333-0.284-0.718-0.592-0.989-0.86l-0.764-0.784c-0.981-1.081-1.919-2.18-2.827-3.294c-1.782-2.263-3.46-4.565-4.934-7.03    L211.7,97.891z" />
		<path style="fill:#EAF3FF;" d="M317.292,99.126c2.561,1.113,4.988,2.464,7.352,3.954c2.35,1.504,4.64,3.133,6.798,4.944    c1.104,0.879,2.133,1.847,3.195,2.788c1.001,1.001,2.035,1.981,2.975,3.053c1.959,2.079,3.692,4.367,5.504,6.651l-0.255-0.369    c1.177,1.134,2.453,2.061,3.701,2.975c1.261,0.898,2.536,1.795,3.958,2.562c1.417,0.771,2.95,1.445,4.624,2.022    c1.677,0.589,3.484,1.061,5.5,1.538l0.145,0.72c-1.737,1.231-3.78,1.99-5.925,2.347c-2.147,0.347-4.406,0.27-6.6-0.234    c-2.189-0.508-4.339-1.407-6.18-2.752c-1.857-1.327-3.361-3.084-4.564-4.949l-0.255-0.37c-1.083-2.342-2.356-4.627-3.874-6.764    c-1.482-2.161-3.09-4.266-4.818-6.292c-1.731-2.021-3.55-4.002-5.506-5.857c-1.938-1.872-3.98-3.681-6.133-5.326L317.292,99.126z" />
	</g>
	<g>
		<path style="fill:#DEEAF9;" d="M41.166,367.041c-3.175-0.446-6.038-1.047-8.725-1.724l-1.95-0.531l-1.862-0.563    c-1.15-0.399-2.316-0.802-3.334-1.238c-1.088-0.424-2.089-0.871-3.125-1.321c-0.891-0.47-1.67-0.965-1.929-1.504    c-0.69-1.057-0.39-2.186,1.36-3.223l0.763-0.016c0.675,0.231,1.158,0.458,1.651,0.679c0.469,0.222,0.843,0.441,1.308,0.652    c0.433,0.212,0.807,0.424,1.15,0.634c0.159,0.106,0.356,0.209,0.549,0.311l0.527,0.309c1.415,0.807,1.729,1.741,3.055,2.597    c0.61,0.432,1.383,0.842,2.152,1.258l1.215,0.619l1.335,0.603c1.816,0.802,3.931,1.567,6.282,2.274L41.166,367.041z" />
		<path style="fill:#DEEAF9;" d="M425.269,328.3c0,0,44.796,4.25,38.06,15.276s-20.577,14.582-11.107,20.417    c9.47,5.836,25.644,15.035,4.445,22.596c-21.199,7.561-42.832,3.965-59.332,6.08c-16.5,2.115-11.425,10.574-42.736,13.747    c-31.311,3.172-52.436-0.634-64.82-4.653c-12.384-4.018-33.509,1.903-58.276,2.961c-24.767,1.057-47.349,0.423-64.832-6.979    c-17.483-7.402-51.447,1.269-80.357-4.441s-12.287-16.284-14.771-21.149c-2.484-4.864-40.01-3.852-46.378-17.47    c-5.653-12.088,7.272-26.385,61.149-26.385H425.269z" />
		<path style="fill:#DEEAF9;" d="M470.865,384.63c-0.804,1.318-2.697,2.553-5.021,3.721c-2.393,1.157-5.377,2.228-8.882,3.147    c-0.854,0.237-1.791,0.445-2.672,0.678l-1.347,0.342l-1.433,0.307c-0.972,0.198-1.954,0.398-2.987,0.568    c-1.064,0.152-2.157,0.288-3.263,0.412l-1.667,0.178l-1.729,0.123c-1.156,0.076-2.315,0.145-3.477,0.199    c-2.35,0.079-4.749,0.077-7.127-0.009l-0.148-0.185c1.926-0.447,3.896-0.753,5.798-1.081c0.936-0.175,1.876-0.334,2.818-0.487    l1.418-0.22l1.363-0.245c0.913-0.158,1.84-0.304,2.795-0.434c0.925-0.145,1.843-0.292,2.803-0.423l1.454-0.193l1.38-0.229    c0.913-0.157,1.862-0.305,2.726-0.485l2.564-0.557c0.842-0.192,1.61-0.408,2.426-0.611c0.848-0.196,1.553-0.431,2.332-0.649    c0.791-0.216,1.475-0.458,2.186-0.697c1.453-0.471,2.732-0.987,3.951-1.519c1.145-0.541,2.259-1.105,3.104-1.695L470.865,384.63z" />
		<path style="fill:#DEEAF9;" d="M295.412,405.936c-2.395-0.498-4.757-0.997-7.166-1.459c-1.189-0.236-2.39-0.462-3.6-0.676    l-0.892-0.163c-0.288-0.05-0.501-0.07-0.744-0.107c-0.224-0.039-0.49-0.053-0.728-0.078c-0.234-0.027-0.488-0.042-0.743-0.053    c-1.003-0.057-2.073-0.011-3.138,0.069c-1.073,0.079-2.187,0.14-3.437,0.163c-2.521,0.034-5.341,0.127-8.871-0.05l-0.342-0.199    c0.817-0.474,1.898-0.836,3.122-1.152c1.228-0.313,2.629-0.568,4.2-0.75c1.564-0.183,3.331-0.268,5.167-0.209    c1.838,0.066,3.696,0.226,5.419,0.462c0.435,0.057,0.856,0.12,1.253,0.199c0.398,0.076,0.811,0.143,1.16,0.236    c0.347,0.086,0.748,0.179,1.03,0.26l0.796,0.237c1.021,0.327,1.999,0.659,2.945,0.996c1.856,0.684,3.604,1.381,5.139,2.126    L295.412,405.936z" />
		<path style="fill:#DEEAF9;" d="M185.424,405.562c-2.668-0.337-5.196-0.745-7.658-1.196c-2.448-0.455-4.833-0.948-7.081-1.495    c-1.15-0.266-2.221-0.559-3.328-0.843c-1.043-0.303-2.12-0.599-3.099-0.923c-2.041-0.629-3.846-1.321-5.733-2.012l0.265,0.112    c-1.226-0.343-2.555-0.623-3.855-0.9c-1.314-0.272-2.642-0.543-4.122-0.775c-1.476-0.233-3.073-0.437-4.817-0.612    c-1.747-0.178-3.629-0.321-5.729-0.465l-0.151-0.218c1.809-0.372,3.937-0.602,6.172-0.71c2.236-0.105,4.589-0.082,6.875,0.071    c2.28,0.154,4.519,0.426,6.438,0.832c1.934,0.401,3.5,0.933,4.754,1.497l0.265,0.112c1.128,0.708,2.454,1.399,4.036,2.046    c1.544,0.654,3.218,1.29,5.018,1.903c1.803,0.611,3.698,1.21,5.736,1.771c2.018,0.566,4.146,1.113,6.388,1.611L185.424,405.562z" />
	</g>
	<g>
		<path style="fill:#0094F5;" d="M195.43,354.608c0,0-17.346-21.988,0.787-58.239c18.132-36.251-1.311-62.967,12.063-83.662    c13.375-20.694,43.971-26.449,53.586-3.116c9.616,23.333,0.962,73.434-34.049,102.931    C192.808,342.02,195.43,354.608,195.43,354.608z" />
		<g>
			<path style="fill:#004CB2;" d="M232.202,227.417c1.098,11.203-0.245,22.558-2.925,33.485c-1.373,5.469-3.219,10.808-5.333,16.035     c-2.235,5.183-4.725,10.231-7.369,15.199c-2.672,4.951-5.472,9.827-8.227,14.717c-2.762,4.885-5.407,9.832-7.645,14.959     c-2.23,5.125-3.92,10.497-4.769,16.029c-0.9,5.526-0.936,11.166-0.504,16.767c-0.657-5.578-0.724-11.246,0.019-16.839     c0.757-5.592,2.382-11.05,4.545-16.257c2.147-5.222,4.835-10.188,7.559-15.102c2.734-4.912,5.5-9.797,8.141-14.745     c2.661-4.936,5.17-9.956,7.412-15.079c2.139-5.172,3.95-10.474,5.429-15.875c1.447-5.41,2.485-10.929,3.134-16.496     c0.171-1.391,0.282-2.788,0.42-4.184c0.076-1.399,0.208-2.797,0.232-4.2C232.422,233.029,232.424,230.217,232.202,227.417z" />
		</g>
	</g>
	<g>
		<path style="fill:#00D2BE;" d="M279.553,239.624c0,0-17.461-0.327-18.871,21.051c0,0-9.103,5.054-8.753,16.188    c0.35,11.134,6.644,13.931,6.644,13.931s-4.895,4.408-6.644,11.12c-1.748,6.713,2.448,11.958,7.343,14.056    c0,0-8.742,14.511-2.797,22.291c3.147,4.858,8.392,4.858,8.392,4.858s-4.895,6.768-2.797,11.489h101.648    c0,0,7.607-11.862-3.662-22.977c0,0,7.423-11.263,0-25.176c0,0,4.116-18.546-8.822-24.796c0,0,9.108-8.911,3.155-23.141    c-5.953-14.23-14.345-15.64-14.345-15.64s0-13.557-10.84-19.535c-10.84-5.979-16.784-3.072-16.784-3.072    s-14.686-5.636-23.777,3.072S279.553,239.624,279.553,239.624z" />
		<g>
			<path style="fill:#00BDA9;" d="M303.129,354.608c-0.51-10.692-0.609-21.402-0.502-32.108c0.109-10.707,0.547-21.411,1.232-32.1     c0.781-10.681,1.831-21.354,3.527-31.938c1.79-10.546,3.961-21.133,8.069-31.046c-1.878,5.014-3.283,10.183-4.426,15.401     c-1.168,5.214-2.098,10.478-2.883,15.763c-0.745,5.291-1.419,10.592-1.963,15.909c-0.539,5.317-0.963,10.647-1.328,15.979     c-0.767,10.664-1.19,21.353-1.463,32.045c-0.144,5.346-0.227,10.694-0.262,16.043     C303.066,343.907,303.079,349.257,303.129,354.608z" />
		</g>
		<g>
			<path style="fill:#00BDA9;" d="M283.722,254.699c0.522,1.574,1.083,3.128,1.718,4.654c0.611,1.533,1.272,3.045,1.976,4.534     c1.409,2.978,2.968,5.882,4.709,8.67c0.827,1.423,1.794,2.754,2.703,4.124c0.991,1.31,1.926,2.668,2.99,3.923     c0.524,0.634,1.029,1.287,1.569,1.908l1.675,1.819c1.07,1.264,2.337,2.327,3.475,3.542c-2.616-2.03-5.133-4.24-7.305-6.771     c-1.165-1.198-2.118-2.572-3.171-3.866c-0.946-1.372-1.933-2.72-2.786-4.153c-1.744-2.841-3.303-5.8-4.559-8.885     C285.446,261.122,284.37,257.957,283.722,254.699z" />
		</g>
		<g>
			<path style="fill:#00BDA9;" d="M305.075,279.867c1.527-0.322,3.043-0.669,4.545-1.072c1.506-0.384,3.007-0.782,4.492-1.238     c2.971-0.899,5.929-1.834,8.839-2.91c2.912-1.066,5.805-2.191,8.655-3.423c2.867-1.198,5.663-2.555,8.499-3.863     c-1.322,0.826-2.658,1.638-4.017,2.408c-1.38,0.73-2.749,1.486-4.163,2.155c-2.795,1.406-5.705,2.567-8.634,3.663     c-2.943,1.061-5.939,1.98-8.981,2.71C311.271,279.024,308.193,279.633,305.075,279.867z" />
		</g>
		<g>
			<path style="fill:#00BDA9;" d="M275.287,299.788c0.698,1.517,1.457,2.996,2.308,4.423c0.41,0.721,0.853,1.423,1.279,2.133     l1.383,2.065c1.893,2.715,4.012,5.266,6.346,7.596c1.121,1.214,2.406,2.254,3.629,3.362c1.315,0.994,2.574,2.071,3.974,2.951     c0.692,0.45,1.358,0.949,2.075,1.361l2.173,1.206c0.706,0.443,1.464,0.78,2.22,1.125c0.756,0.345,1.51,0.702,2.263,1.068     c-0.79-0.264-1.579-0.538-2.366-0.824c-0.79-0.278-1.586-0.549-2.334-0.929l-2.267-1.096c-0.75-0.378-1.451-0.844-2.18-1.263     c-1.488-0.801-2.777-1.894-4.156-2.863c-1.267-1.108-2.584-2.165-3.74-3.392c-2.364-2.395-4.506-5.019-6.275-7.878     C277.835,305.991,276.307,302.974,275.287,299.788z" />
		</g>
		<g>
			<path style="fill:#00BDA9;" d="M302.937,345.322c1.806-0.366,3.598-0.77,5.368-1.26l2.654-0.725l2.627-0.811     c3.484-1.137,6.911-2.433,10.243-3.938c3.354-1.46,6.577-3.201,9.701-5.101l2.33-1.455l2.235-1.598l1.13-0.787l1.074-0.86     c0.714-0.577,1.437-1.146,2.168-1.71c-2.614,2.587-5.407,5.049-8.521,7.057l-1.144,0.787l-1.191,0.712     c-0.799,0.467-1.581,0.966-2.395,1.406c-1.64,0.858-3.28,1.722-4.978,2.461c-3.383,1.5-6.864,2.788-10.432,3.759     C310.241,344.233,306.611,344.998,302.937,345.322z" />
		</g>
	</g>
	<g>
		<path style="fill:#00E8D2;" d="M149.984,222.434c0,0,4.535-11.675,13.451-11.083c8.916,0.593,13.637,6.887,12.588,17.901    c0,0,10.49-4.983,16.259,6.556s-2.36,19.407-7.867,22.029c0,0,9.179,0.525,14.161,7.605c4.983,7.081,1.836,20.025-10.752,19.322    c0,0,6.556,2.93,8.392,11.604c1.836,8.674-8.916,14.705-8.916,14.705s11.589,0.262,13.531,15.473    c1.942,15.211-15.891,16.885-15.891,16.885s10.752,4.357,10.49,11.176h-92.771c0,0-6.396-20.193,11.193-29.634    c0,0-12.307-13.938-1.293-28.605c0,0-7.081-8.635-2.36-17.027c0,0-5.302-9.587,3.409-13.375c0,0-3.395-13.009,7.343-15.72    c0,0,0.014-16.012,12.464-16.012C133.415,234.236,136.795,217.714,149.984,222.434z" />
		<g>
			<path style="fill:#00BDA9;" d="M147.438,354.608c-0.51-10.692-0.609-21.402-0.502-32.108c0.109-10.707,0.547-21.411,1.232-32.1     c0.781-10.681,1.831-21.354,3.527-31.938c1.79-10.546,3.961-21.133,8.069-31.046c-1.878,5.014-3.283,10.183-4.426,15.401     c-1.168,5.214-2.098,10.478-2.883,15.763c-0.745,5.291-1.419,10.592-1.963,15.909c-0.539,5.317-0.963,10.647-1.328,15.979     c-0.768,10.664-1.19,21.353-1.463,32.045c-0.144,5.346-0.227,10.694-0.262,16.043     C147.376,343.907,147.389,349.257,147.438,354.608z" />
		</g>
		<g>
			<path style="fill:#00BDA9;" d="M128.032,254.699c0.522,1.574,1.084,3.128,1.719,4.654c0.611,1.533,1.271,3.045,1.976,4.534     c1.409,2.978,2.968,5.882,4.709,8.67c0.827,1.423,1.794,2.754,2.703,4.124c0.991,1.31,1.926,2.668,2.99,3.923     c0.524,0.634,1.029,1.287,1.569,1.908l1.675,1.819c1.07,1.264,2.338,2.327,3.475,3.542c-2.616-2.03-5.133-4.24-7.305-6.771     c-1.165-1.198-2.118-2.572-3.171-3.866c-0.946-1.372-1.933-2.72-2.786-4.153c-1.744-2.841-3.303-5.8-4.559-8.885     C129.756,261.122,128.68,257.957,128.032,254.699z" />
		</g>
		<g>
			<path style="fill:#00BDA9;" d="M149.385,279.867c1.527-0.322,3.043-0.669,4.545-1.072c1.506-0.384,3.007-0.782,4.492-1.238     c2.971-0.899,5.929-1.834,8.839-2.91c2.912-1.066,5.804-2.191,8.655-3.423c2.867-1.198,5.663-2.555,8.499-3.863     c-1.322,0.826-2.658,1.638-4.017,2.408c-1.38,0.73-2.749,1.486-4.163,2.155c-2.795,1.406-5.705,2.567-8.635,3.663     c-2.943,1.061-5.939,1.98-8.981,2.71C155.581,279.024,152.502,279.633,149.385,279.867z" />
		</g>
		<g>
			<path style="fill:#00BDA9;" d="M119.597,299.788c0.698,1.517,1.457,2.996,2.308,4.423c0.41,0.721,0.853,1.423,1.279,2.133     l1.383,2.065c1.894,2.715,4.012,5.266,6.346,7.596c1.121,1.214,2.406,2.254,3.629,3.362c1.315,0.994,2.574,2.071,3.974,2.951     c0.692,0.45,1.358,0.949,2.075,1.361l2.172,1.206c0.706,0.443,1.464,0.78,2.22,1.125c0.756,0.345,1.51,0.702,2.263,1.068     c-0.79-0.264-1.579-0.538-2.366-0.824c-0.79-0.278-1.586-0.549-2.334-0.929l-2.267-1.096c-0.75-0.378-1.451-0.844-2.18-1.263     c-1.488-0.801-2.777-1.894-4.156-2.863c-1.267-1.108-2.584-2.165-3.74-3.392c-2.364-2.395-4.506-5.019-6.275-7.878     C122.145,305.991,120.617,302.974,119.597,299.788z" />
		</g>
		<g>
			<path style="fill:#00BDA9;" d="M147.246,345.322c1.806-0.366,3.597-0.77,5.368-1.26l2.654-0.725l2.627-0.811     c3.484-1.137,6.911-2.433,10.243-3.938c3.354-1.46,6.577-3.201,9.701-5.101l2.33-1.455l2.235-1.598l1.13-0.787l1.074-0.86     c0.714-0.577,1.437-1.146,2.168-1.71c-2.614,2.587-5.407,5.049-8.52,7.057l-1.144,0.787l-1.191,0.712     c-0.799,0.467-1.581,0.966-2.395,1.406c-1.64,0.858-3.279,1.722-4.978,2.461c-3.383,1.5-6.864,2.788-10.432,3.759     C154.551,344.233,150.921,344.998,147.246,345.322z" />
		</g>
	</g>
	<g>
		<path style="fill:#FFB89F;" d="M110.199,205.242c0,0-4.458,23.34,11.539,28.323c4.983,1.446,21.767,3.671,26.487-19.669    c0,0-15.735-8.917-17.046-23.865C131.179,190.032,120.164,207.34,110.199,205.242z" />
		<path style="fill:#FFB89F;" d="M110.199,205.242c0,0-2.622-3.147-5.507-1.18c-2.885,1.967-3.898,13.468,5.263,13.356    C109.955,217.418,109.019,210.356,110.199,205.242z" />
		<path style="fill:#FFB89F;" d="M148.225,213.897c0,0,3.672-1.836,5.901,0c2.229,1.836-0.279,13.758-10.236,11.534    C143.89,225.43,146.652,221.764,148.225,213.897z" />
		<g>
			<path style="fill:#4847D0;" d="M110.152,205.514c0.029-0.177,0.048-0.272,0.048-0.272c-0.02,0.087-0.035,0.18-0.054,0.268     L110.152,205.514z" />
			<path style="fill:#4847D0;" d="M130.654,181.771c-20.718-0.393-24.225,21.645-24.225,21.645l0.029,0.016     c2.106-0.14,3.741,1.811,3.741,1.811c9.965,2.098,20.98-15.21,20.98-15.21c1.311,14.948,17.046,23.865,17.046,23.865     s1.65-0.82,3.408-0.812c0-0.002,0.001-0.003,0.001-0.004C154.126,201.906,151.372,182.164,130.654,181.771z" />
		</g>
		<path style="fill:#FFB89F;" d="M118.2,231.988l-1.838,5.38c0,0-3.273,7.736,1.838,11.277c3.013,1.705,7.332-0.62,9.307-7.474    c0.656-3.016,1.419-6.782,1.419-6.782S121.315,234.501,118.2,231.988z" />
		<path style="fill:#0054EE;" d="M149.385,266.346c-1.422-12.063-2.209-17.309-7.716-20.718c-5.507-3.409-13.88-5.765-13.88-5.766    c-0.094,0.442-0.189,0.882-0.281,1.307c-1.975,6.854-6.294,9.179-9.307,7.474c-5.111-3.54-1.838-11.277-1.838-11.277    s-11.932-1.442-18.489,0c-6.556,1.442-23.34,32.388-20.193,39.469c3.147,7.081,28.749,7.605,28.749,7.605v5.245    c0,0,25.012,1.311,34.453-1.836C150.323,284.704,150.807,278.41,149.385,266.346z" />
		<path style="fill:#0054EE;" d="M106.429,289.687v-5.245c0,0-8.179-0.169-15.86-1.593h-0.002l-1.61,25.545    c19.8,15.393,49.303,0.874,49.303,0.874c-0.334-5.227-0.738-14.488-0.988-20.54C126.262,290.724,106.429,289.687,106.429,289.687z    " />
		<path style="fill:#FFB89F;" d="M90.567,282.849c0,0,6.06,4.041,15.862,6.838v-5.245    C106.429,284.442,95.517,283.997,90.567,282.849z" />
		<path style="fill:#001B3C;" d="M88.957,308.394c0,0-2.273,21.33-1.923,32.694h53.674c0,0-0.35-17.658-2.448-31.82    C138.26,309.268,109.587,322.905,88.957,308.394z" />
		<g>
			<path style="fill:#001B3C;" d="M100.234,258.479c-0.13,1.824-0.604,3.56-1.179,5.255c-0.602,1.686-1.321,3.339-2.362,4.841     c0.306-1.801,0.847-3.487,1.418-5.171C98.714,261.732,99.349,260.076,100.234,258.479z" />
		</g>
		<g>
			<path style="fill:#001B3C;" d="M90.567,268.182c3.293-0.343,6.632-0.23,9.93,0.244c1.66,0.215,3.275,0.653,4.875,0.997     l4.826,1.072l9.665,2.087c1.611,0.346,3.227,0.672,4.848,0.966c1.617,0.327,3.24,0.603,4.881,0.804     c-3.316-0.005-6.604-0.51-9.868-1.013c-3.268-0.514-6.51-1.167-9.74-1.867c-1.613-0.363-3.224-0.732-4.829-1.129     c-1.614-0.407-3.187-0.842-4.787-1.161c-1.603-0.323-3.231-0.545-4.866-0.701C93.866,268.3,92.22,268.216,90.567,268.182z" />
		</g>
		<g>
			<path style="fill:#001B3C;" d="M106.429,284.442c1.744-2.297,4.21-4.004,6.864-5.183c1.34-0.618,2.732-0.975,4.054-1.481     l4.037-1.452c2.708-0.943,5.463-1.819,8.294-2.387c2.824-0.58,5.713-0.887,8.583-0.774c-1.426,0.177-2.845,0.317-4.242,0.609     c-1.404,0.232-2.791,0.555-4.166,0.915c-2.746,0.734-5.448,1.621-8.137,2.58l-4.062,1.402c-1.372,0.461-2.765,0.811-4.07,1.296     c-1.318,0.49-2.594,1.109-3.789,1.865C108.58,282.562,107.443,283.428,106.429,284.442z" />
		</g>
		<g>
			<path style="fill:#001B3C;" d="M132.097,263.342c0.524,1.69,0.771,3.393,0.983,5.099c0.088,0.855,0.178,1.707,0.226,2.566     c0.057,0.859,0.089,1.714,0.109,2.599c-0.424-0.784-0.677-1.635-0.88-2.482c-0.208-0.849-0.341-1.708-0.447-2.569     C131.907,266.83,131.835,265.095,132.097,263.342z" />
		</g>
		<g>
			<path style="fill:#001B3C;" d="M106.429,289.687l7.739,0.065c2.575-0.005,5.147,0.027,7.717-0.027     c2.57-0.037,5.137-0.113,7.702-0.252c1.281-0.081,2.567-0.148,3.842-0.302c1.288-0.083,2.553-0.296,3.842-0.442     c-2.476,0.764-5.045,1.194-7.617,1.51c-2.575,0.322-5.167,0.425-7.755,0.485c-2.589,0.03-5.177-0.029-7.758-0.207     C111.561,290.343,108.983,290.11,106.429,289.687z" />
		</g>
	</g>
	<g>
		<path style="fill:#0094F5;" d="M406.052,353.723c0,0,50.702-9.441,67.835-56.646s-0.35-53.27-13.987-50.412    c-13.637,2.858-32.869,22.789-33.218,56.357S406.052,353.723,406.052,353.723z" />
		<g>
			<path style="fill:#004CB2;" d="M406.052,353.723c3.911-2.203,7.648-4.698,11.214-7.407c3.582-2.688,6.982-5.613,10.136-8.777     c6.271-6.317,11.677-13.713,14.439-22.184c1.348-4.196,1.995-8.713,3.275-13.028c1.218-4.333,2.53-8.646,4.175-12.837     c3.224-8.395,7.07-16.579,11.919-24.145c-2.263,3.877-4.28,7.888-6.127,11.971c-1.868,4.073-3.556,8.227-5.071,12.44     c-1.523,4.211-2.853,8.488-4.018,12.807c-1.249,4.305-1.835,8.733-3.205,13.102c-2.906,8.642-8.403,16.155-14.85,22.418     C421.44,344.333,414.043,349.626,406.052,353.723z" />
		</g>
	</g>
	<g>
		<path style="fill:#0094F5;" d="M99.241,353.422c0,0-56.296-19.03-70.283-70.881c-13.987-51.851,16.784-86.916,39.163-81.272    c22.379,5.643,11.889,49.407,2.098,75.779C60.428,303.42,84.555,343.632,99.241,353.422z" />
		<g>
			<path style="fill:#004CB2;" d="M99.241,353.422c-5.291-2.445-10.197-5.666-14.843-9.187c-4.639-3.544-8.908-7.566-12.819-11.908     c-3.914-4.342-7.368-9.097-10.36-14.123c-0.713-1.277-1.496-2.516-2.15-3.825l-1.967-3.924l-1.745-4.028     c-0.578-1.344-1.023-2.741-1.541-4.11c-0.53-1.366-0.921-2.777-1.327-4.183c-0.4-1.407-0.856-2.8-1.139-4.237l-0.96-4.282     l-0.696-4.332c-0.27-1.439-0.378-2.898-0.523-4.353c-0.117-1.457-0.338-2.906-0.369-4.368c-0.097-2.921-0.266-5.842-0.095-8.761     c0.061-1.459,0.056-2.921,0.172-4.376l0.397-4.36l0.199-2.179l0.321-2.165l0.65-4.326c0.488-2.874,1.181-5.71,1.761-8.564     c0.721-2.823,1.512-5.627,2.278-8.434c-2.978,11.251-4.847,22.813-5.009,34.419c-0.224,11.591,1.439,23.245,5.283,34.171     c3.698,10.987,9.808,21.082,17.394,29.831c3.809,4.368,7.993,8.426,12.546,12.031C89.224,347.486,94.053,350.777,99.241,353.422z     " />
		</g>
	</g>
	<g>
		<path style="fill:#FFB89F;" d="M350.175,226.484c0,0,7.588,22.518,23.969,18.996c5.05-1.189,20.761-7.5,13.402-30.147    c0,0-11.158-2.951-20.841-15.152C366.704,200.18,359.361,219.945,350.175,226.484z" />
		<path style="fill:#FFB89F;" d="M350.175,226.484c0,0-3.831-1.452-5.376,1.679c-1.546,3.131,3.224,13.645,11.147,9.045    C355.946,237.208,352.029,231.459,350.175,226.484z" />
		<path style="fill:#FFB89F;" d="M387.546,215.333c0,0,2.295-3.403,5.139-2.9c2.844,0.503,6.518,12.119-3.246,15.075    C389.438,227.508,390.042,222.958,387.546,215.333z" />
		<path style="fill:#FFB89F;" d="M369.825,252.529l1.043,5.589c0,0,0.952,8.346,7.143,8.918c3.462,0.004,6.081-4.144,4.433-11.083    c-0.911-2.949-2.097-6.604-2.097-6.604S373.773,253.188,369.825,252.529z" />
		<path style="fill:#4847D0;" d="M353.837,234.087c0,0,17.847,10.054,35.638-9.697c0,0,9.041,26.64-13.088,31.388    C359.274,259.449,353.837,234.087,353.837,234.087z" />
		<path style="fill:#4847D0;" d="M367.037,239.228c0.174,0.087,0.38,0.087,0.567,0.034c1.708-0.486,10.539-3.028,12.826-4.289    c2.535-1.399-2.38-5.269-6.896-4.283C366.615,232.199,364.485,237.954,367.037,239.228z" />
		<path style="fill:#4847D0;" d="M366.704,200.18c9.683,12.202,20.841,15.152,20.841,15.152l1.929-1.972    c-7.65-24.934-29.764-25.593-37.806-14.229c-8.042,11.364-3.322,27.016-3.322,27.016l1.828,0.336    C359.361,219.945,366.704,200.18,366.704,200.18z" />
		<path style="fill:#0054EE;" d="M410.762,263.295c-4.077-2.61-22.219-7.499-28.479-7.861c0.054,0.174,0.108,0.348,0.161,0.518    c1.648,6.94-0.971,11.087-4.433,11.083c-6.191-0.571-7.143-8.918-7.143-8.918s-12.939,5.002-17.031,14.967    c-4.092,9.966-7.935,34.77-7.938,37.589c-0.006,5.844,14.336,20.63,14.336,20.63s14.861,8.916,33.918,3.671l-1.574,2.972    c0,0,0.35,5.944,8.042,5.07c0,0,18.357-22.029,19.057-32.694C420.378,299.66,415.133,266.092,410.762,263.295z" />
		<g>
			<path style="fill:#001B3C;" d="M394.153,334.977c1.113-2.262,2.211-4.528,3.233-6.828c1.046-2.288,2.036-4.6,2.948-6.938     c0.904-2.341,1.755-4.7,2.416-7.104c0.635-2.395,1.189-4.874,0.814-7.261c-0.708-4.947-1.857-9.868-2.892-14.79l-3.198-14.774     c0.731,2.414,1.385,4.848,2.062,7.276l1.885,7.324c1.193,4.902,2.333,9.808,3.132,14.827c0.371,2.641-0.256,5.208-0.928,7.641     c-0.717,2.441-1.56,4.836-2.583,7.151C399.043,326.146,396.746,330.65,394.153,334.977z" />
		</g>
		<g>
			<path style="fill:#001B3C;" d="M359.187,276.233c0.727,4.544,1.126,9.132,1.45,13.72c0.317,4.59,0.443,9.189,0.557,13.788     c0.017,4.6,0.019,9.2-0.145,13.796c-0.071,2.298-0.202,4.594-0.305,6.891c-0.158,2.294-0.308,4.588-0.508,6.879l0.044-13.782     c0.004-4.591,0.01-9.181-0.085-13.769c-0.03-4.589-0.171-9.176-0.323-13.762c-0.073-2.294-0.166-4.587-0.291-6.879     C359.489,280.818,359.343,278.527,359.187,276.233z" />
		</g>
		<path style="fill:#001B3C;" d="M404.189,338.518c-2.109,2.751-3.567,4.5-3.567,4.5c-7.693,0.874-8.042-5.07-8.042-5.07    l1.574-2.972c-19.057,5.245-33.918-3.672-33.918-3.672l-1.049,22.977h46.374C405.561,354.282,405.571,346.357,404.189,338.518    L404.189,338.518z" />
	</g>
	<g>
		<path style="fill:#0094F5;" d="M124.098,354.578c0,0-6.818-4.983-3.672-16.259c3.147-11.277,19.931-11.801,22.553-4.458    c0,0,2.885-17.571,20.718-17.833c7.605,0,13.637,8.479,12.326,14.336c0,0,8.916-7.518,17.571-1.224    c8.654,6.294,5.507,15.735,5.507,15.735s5.245-1.049,6.556,1.836c1.311,2.885,1.132,6.294-4.679,7.867H124.098z" />
		<path style="fill:#0094F5;" d="M193.625,354.578c0,0-6.818-4.983-3.671-16.259s19.931-11.801,22.553-4.458    c0,0,2.885-17.571,20.718-17.833c7.605,0,13.637,8.479,12.326,14.336c0,0,8.916-7.518,17.571-1.224    c8.654,6.294,5.507,15.735,5.507,15.735s5.245-1.049,6.556,1.836c1.311,2.885,1.132,6.294-4.679,7.867H193.625z" />
	</g>
	<g>
		<path style="fill:#00E8D2;" d="M359.346,354.559c0,0,4.255-31.204,31.204-31.204c26.949,0,17.021-14.499,39.715-15.76    c22.694-1.261,23.167,46.019-18.912,46.964C369.275,355.504,359.346,354.559,359.346,354.559z" />
		<g>
			<path style="fill:#00BDA9;" d="M359.346,354.559c4.227-5.203,9.573-9.514,15.507-12.768c2.968-1.643,6.151-2.871,9.394-3.901     c0.821-0.223,1.654-0.407,2.482-0.608l1.244-0.295c0.418-0.084,0.842-0.131,1.263-0.198l2.532-0.372     c0.846-0.1,1.702-0.106,2.554-0.162l4.989-0.205c0.822-0.001,1.632-0.134,2.445-0.233c0.811-0.113,1.63-0.184,2.436-0.327     c3.232-0.566,6.384-1.511,9.445-2.718c3.028-1.283,5.94-2.868,8.658-4.759c2.741-1.862,5.273-4.051,7.498-6.55     c-3.919,5.453-9.458,9.705-15.591,12.598c-3.097,1.406-6.364,2.422-9.704,3.109c-0.833,0.176-1.685,0.248-2.527,0.375     c-0.845,0.11-1.687,0.254-2.54,0.263l-5.03,0.247c-0.816,0.048-1.637,0.044-2.45,0.133l-2.433,0.337     c-0.405,0.061-0.813,0.101-1.215,0.178l-1.198,0.275l-2.397,0.549c-3.155,0.904-6.246,2.052-9.211,3.507     C369.61,346,364.084,349.832,359.346,354.559z" />
		</g>
	</g>
	<g>
		<path style="fill:#0094F5;" d="M326.306,354.746c0,0,2.36-17.309,17.308-17.309s9.441-8.042,22.029-8.742    c12.588-0.699,12.85,25.526-10.49,26.05S326.306,354.746,326.306,354.746z" />
		<g>
			<path style="fill:#004CB2;" d="M326.306,354.746c2.337-2.897,5.321-5.261,8.604-7.077c1.642-0.92,3.41-1.596,5.208-2.169     c1.825-0.47,3.691-0.866,5.588-0.907l2.767-0.114c0.909-0.034,1.807-0.195,2.708-0.311c1.794-0.312,3.539-0.842,5.241-1.503     c1.686-0.7,3.298-1.589,4.8-2.645c1.52-1.033,2.925-2.247,4.159-3.633c-2.167,3.036-5.257,5.366-8.65,6.983     c-1.713,0.789-3.528,1.346-5.38,1.729c-0.932,0.143-1.868,0.306-2.811,0.354l-2.79,0.137c-1.819,0.018-3.61,0.398-5.376,0.817     c-1.751,0.5-3.462,1.142-5.112,1.94c-1.641,0.81-3.221,1.759-4.714,2.836C329.039,352.243,327.62,353.435,326.306,354.746z" />
		</g>
	</g>
	<g>
		<path style="fill:#FEFEFE;" d="M185.014,309.595c0.902,0,1.465,0.563,1.465,1.464v12.96c0,0.901-0.563,1.464-1.465,1.464h-28.735    v27.835c0,0.902-0.564,1.465-1.465,1.465h-15.325c-0.902,0-1.465-0.564-1.465-1.465v-76.966c0-0.902,0.563-1.465,1.465-1.465    h54.203c1.014,0,1.465,0.675,1.24,1.691l-3.606,13.072c-0.226,0.789-0.789,1.239-1.578,1.239h-33.468v18.707H185.014z" />
		<path style="fill:#FEFEFE;" d="M215.104,344.19l-3.381,9.466c-0.338,0.789-0.902,1.127-1.69,1.127h-15.889    c-1.127,0-1.578-0.677-1.24-1.69l15.889-43.047c4.169-11.495,7.888-22.538,10.706-33.92c0.225-0.789,0.789-1.239,1.69-1.239h20.96    c0.902,0,1.464,0.45,1.691,1.239c2.817,11.382,6.535,22.425,10.705,33.92l15.89,43.047c0.338,1.014-0.113,1.69-1.24,1.69h-15.888    c-0.79,0-1.353-0.338-1.691-1.127l-3.381-9.466H215.104z M240.91,323.792c-3.268-8.901-6.874-19.494-8.226-26.819    c-0.338-1.352-1.69-1.352-2.029,0c-1.465,7.325-4.958,17.805-8.226,26.819l-1.578,4.508h21.637L240.91,323.792z" />
		<path style="fill:#FEFEFE;" d="M341.995,374.277c-0.675,0.564-1.464,0.452-2.028-0.225l-5.41-7.212    c-4.958-6.649-11.268-10.818-22.988-10.818c-22.086,0-35.947-15.888-35.947-41.131c0-25.355,13.861-41.245,35.947-41.245    c22.088,0,35.835,15.889,35.835,41.245c0,12.846-4.508,25.918-12.058,30.426c-1.352,0.789-1.352,1.127,0,1.577    c6.537,2.367,9.579,5.185,13.072,9.691l5.071,6.874c0.564,0.677,0.45,1.465-0.225,2.029L341.995,374.277z M311.57,339.795    c10.931,0,17.467-9.466,17.467-24.904c0-15.777-6.535-24.905-17.467-24.905c-10.705,0-17.58,9.128-17.58,24.905    C293.99,330.329,300.865,339.795,311.57,339.795z" />
	</g>
	<g>
		<path style="fill:#00E8D2;" d="M298.352,354.746c0,0-2.36-17.309-17.308-17.309s-9.441-8.042-22.029-8.742    c-12.588-0.699-12.85,25.526,10.49,26.05S298.352,354.746,298.352,354.746z" />
		<g>
			<path style="fill:#00BDA9;" d="M298.352,354.746c-1.314-1.311-2.733-2.502-4.242-3.561c-1.493-1.077-3.073-2.026-4.714-2.836     c-1.649-0.798-3.361-1.44-5.112-1.94c-1.767-0.42-3.557-0.799-5.376-0.817l-2.79-0.137c-0.943-0.048-1.879-0.211-2.811-0.354     c-1.852-0.383-3.667-0.94-5.38-1.729c-3.393-1.617-6.483-3.946-8.65-6.983c1.234,1.386,2.638,2.6,4.159,3.633     c1.502,1.056,3.114,1.945,4.8,2.645c1.702,0.66,3.448,1.19,5.241,1.503c0.9,0.116,1.799,0.276,2.708,0.311l2.767,0.114     c1.897,0.041,3.762,0.437,5.588,0.907c1.798,0.573,3.566,1.248,5.208,2.169C293.031,349.485,296.015,351.849,298.352,354.746z" />
		</g>
	</g>
	<g>
		<path style="fill:#00E8D2;" d="M124.155,354.549c0,0-4.355-31.938-31.938-31.938s-17.421-14.84-40.649-16.13    c-23.228-1.291-23.712,47.1,19.356,48.068C113.993,355.517,124.155,354.549,124.155,354.549z" />
		<g>
			<path style="fill:#00BDA9;" d="M124.155,354.549c-4.849-4.838-10.505-8.76-16.531-11.794c-3.035-1.489-6.198-2.664-9.427-3.59     l-2.454-0.562l-1.226-0.282c-0.411-0.079-0.829-0.12-1.243-0.183l-2.49-0.345c-0.832-0.091-1.672-0.087-2.507-0.137l-5.148-0.253     c-0.873-0.01-1.735-0.157-2.6-0.27c-0.862-0.13-1.734-0.203-2.587-0.384c-3.418-0.703-6.762-1.743-9.932-3.182     c-6.277-2.96-11.946-7.312-15.957-12.894c2.277,2.558,4.869,4.798,7.674,6.704c2.782,1.936,5.761,3.558,8.861,4.871     c3.133,1.236,6.359,2.203,9.667,2.782c0.825,0.146,1.663,0.219,2.493,0.335c0.832,0.102,1.661,0.238,2.503,0.238l5.106,0.21     c0.871,0.058,1.747,0.064,2.614,0.166l2.591,0.38c0.431,0.069,0.866,0.116,1.293,0.202l1.273,0.302     c0.847,0.205,1.699,0.394,2.54,0.622c3.32,1.054,6.577,2.31,9.615,3.992C114.357,344.811,119.829,349.223,124.155,354.549z" />
		</g>
	</g>
	<g>
		<path style="fill:#0094F5;" d="M101.658,187.095c0,3.507-2.843,6.35-6.351,6.35c-3.507,0-6.35-2.843-6.35-6.35    c0-3.507,2.843-6.35,6.35-6.35C98.815,180.745,101.658,183.588,101.658,187.095z" />
		<circle style="fill:#0094F5;" cx="191.113" cy="200.604" r="5.317" />
		<circle style="fill:#0094F5;" cx="431.451" cy="245.419" r="4.828" />
		<path style="fill:#0094F5;" d="M114.026,370.84c0,2.098-1.701,3.798-3.798,3.798c-2.098,0-3.798-1.701-3.798-3.798    c0-2.098,1.701-3.798,3.798-3.798C112.325,367.041,114.026,368.742,114.026,370.84z" />
		<circle style="fill:#0094F5;" cx="372.048" cy="366.41" r="4.429" />
		<path style="fill:#0094F5;" d="M270.544,147.588c0,1.386-1.123,2.509-2.509,2.509c-1.386,0-2.509-1.123-2.509-2.509    c0-1.386,1.123-2.509,2.509-2.509C269.421,145.079,270.544,146.202,270.544,147.588z" />
	</g>
</g>

</svg>
